<svg width="800" height="170" viewBox="0 0 800 170" xmlns="http://www.w3.org/2000/svg">
  <defs>
    <pattern id="scan" x="0" y="0" width="800" height="4" patternUnits="userSpaceOnUse">
      <rect x="0" y="3" width="800" height="1" fill="#00ff41" opacity="0.03"/>
    </pattern>
  </defs>

  <rect width="800" height="170" fill="#0d1117"/>
  <rect width="800" height="170" fill="url(#scan)"/>
  <rect x="1" y="1" width="798" height="168" rx="5" fill="none" stroke="#21331e" stroke-width="1"/>

  <path d="M16 16 L16 32 M16 16 L32 16" stroke="#00ff41" stroke-width="1.5" fill="none" opacity="0.7"/>
  <path d="M784 16 L784 32 M784 16 L768 16" stroke="#00ff41" stroke-width="1.5" fill="none" opacity="0.7"/>
  <path d="M16 154 L16 138 M16 154 L32 154" stroke="#00ff41" stroke-width="1.5" fill="none" opacity="0.7"/>
  <path d="M784 154 L784 138 M784 154 L768 154" stroke="#00ff41" stroke-width="1.5" fill="none" opacity="0.7"/>

  <rect x="140" y="24" width="78" height="80" rx="3" fill="#00ff41"/>
  <text x="179" y="82" font-family="'Courier New',monospace" font-weight="900" font-size="64" fill="#0d1117" text-anchor="middle">S</text>

  <rect x="226" y="24" width="78" height="80" rx="3" fill="#00ff41"/>
  <text x="265" y="82" font-family="'Courier New',monospace" font-weight="900" font-size="64" fill="#0d1117" text-anchor="middle">A</text>

  <rect x="312" y="24" width="78" height="80" rx="3" fill="#00ff41"/>
  <text x="351" y="82" font-family="'Courier New',monospace" font-weight="900" font-size="64" fill="#0d1117" text-anchor="middle">M</text>

  <rect x="398" y="24" width="78" height="80" rx="3" fill="#00ff41"/>
  <text x="437" y="82" font-family="'Courier New',monospace" font-weight="900" font-size="64" fill="#0d1117" text-anchor="middle">E</text>

  <rect x="484" y="24" width="78" height="80" rx="3" fill="#00ff41"/>
  <text x="523" y="82" font-family="'Courier New',monospace" font-weight="900" font-size="64" fill="#0d1117" text-anchor="middle">T</text>

  <text x="400" y="124" font-family="'Courier New',monospace" font-size="12" fill="#00ff41" text-anchor="middle" letter-spacing="6" opacity="0.9">M. SAMET KARABULUT</text>

  <rect x="548" y="112" width="7" height="12" fill="#00ff41">
    <animate attributeName="opacity" values="1;1;0;0" keyTimes="0;0.45;0.5;1" dur="1.1s" repeatCount="indefinite"/>
  </rect>

  <text x="400" y="148" font-family="'Courier New',monospace" font-size="10" fill="#00ff41" text-anchor="middle" letter-spacing="5" opacity="0.35">RED TEAM  ·  BUILDER  ·  KEPLL LTD</text>

  <rect x="0" y="0" width="800" height="170" fill="#0d1117" opacity="0">
    <animate attributeName="opacity" values="0;0;0;0;0;0;0;0.06;0;0;0;0.04;0;0;0" keyTimes="0;0.1;0.2;0.3;0.4;0.5;0.6;0.65;0.7;0.8;0.9;0.93;0.96;0.98;1" dur="11s" repeatCount="indefinite"/>
  </rect>
</svg>
